<svg width="391" height="56" viewBox="0 0 391 56" fill="none" xmlns="http://www.w3.org/2000/svg">
<g clip-path="url(#clip0_9_53)">
<path d="M27.3625 1.05341C42.1963 1.05341 54.2237 13.1101 54.2237 27.9818C54.2237 42.8551 42.1963 54.9118 27.3625 54.9118C12.5286 54.9118 0.502716 42.8551 0.502716 27.9818C0.502716 13.1101 12.5286 1.05341 27.3625 1.05341Z" fill="#F6F231"/>
<path d="M27.3625 54.9118C6.68021 46.262 9.51534 23.1658 27.3625 6.28259C45.2096 23.1658 48.0462 46.262 27.3625 54.9118Z" fill="#A5CD39"/>
<path d="M27.3625 6.28109C25.3244 4.6465 22.5753 3.33277 19.0669 2.36563C8.29403 5.86942 0.502716 16.013 0.502716 27.9834C0.502716 42.8551 12.5286 54.9118 27.3625 54.9118C6.68021 46.2621 9.51534 23.1658 27.3625 6.2826V6.28109ZM27.3625 6.28109C29.402 4.6465 32.1496 3.33277 35.6595 2.36563C46.4339 5.86942 54.2237 16.013 54.2237 27.9834C54.2237 42.8551 42.1993 54.9118 27.3625 54.9118C48.0462 46.2621 45.2096 23.1658 27.3625 6.2826V6.28109Z" fill="#CCD132"/>
<path d="M49.3354 12.491C34.1438 15.5831 11.2273 36.515 27.3609 54.9103C42.1948 54.9103 54.2207 42.8536 54.2207 27.9818C54.23 22.4359 52.5231 17.0236 49.3354 12.491Z" fill="#A5CD39"/>
<path d="M5.39097 12.491C20.5796 15.5831 43.4961 36.515 27.3625 54.9118C12.5301 54.9103 0.502716 42.8551 0.502716 27.9834C0.502716 22.2154 2.3143 16.8742 5.39097 12.491Z" fill="#A5CD39"/>
<path d="M0.658211 25.0714C11.5096 28.1635 27.0318 32.5769 27.3609 54.9118C12.5301 54.9103 0.504227 42.8551 0.504227 27.9833C0.504227 26.9981 0.555555 26.0279 0.658211 25.0714ZM54.0667 25.0714C43.2153 28.1635 27.6946 32.5769 27.3625 54.9118C42.1963 54.9118 54.2222 42.8551 54.2222 27.9833C54.2222 26.9981 54.1694 26.0279 54.0667 25.0714Z" fill="#8ABB46"/>
<path d="M2.05313 37.0145C12.512 38.4493 21.4446 43.3001 27.364 54.9118C15.6883 54.9118 5.75782 47.4456 2.05313 37.0145Z" fill="#557745"/>
<path d="M52.6733 37.0145C42.2144 38.4493 33.2803 43.3001 27.3625 54.9118C39.0366 54.9118 48.9686 47.4456 52.6733 37.0145Z" fill="#557745"/>
<path opacity="0.5" d="M27.3625 54.9118C6.68021 46.262 9.51534 23.1658 27.3625 6.28259C45.2096 23.1658 48.0462 46.262 27.3625 54.9118Z" fill="#557745"/>
<g clip-path="url(#clip1_9_53)">
<path d="M145.973 8.04645H137.591V51.0893H145.973V8.04645Z" fill="#A5CD39"/>
<path d="M95.2605 38.3935C95.2605 46.736 88.3251 51.4521 79.3412 51.4521C72.8285 51.4521 67.8829 50.0612 63.6619 45.7689L69.0921 40.3278C71.805 43.0476 75.484 43.9557 79.4635 43.9557C84.4061 43.9557 87.0585 42.0804 87.0585 38.6357C87.0585 37.1252 86.6388 35.8538 85.7331 35.0078C84.8876 34.2223 83.923 33.8 81.9333 33.4958L76.7476 32.7723C73.0701 32.2275 70.3572 31.0787 68.4264 29.205C66.3763 27.1496 65.3527 24.3678 65.3527 20.7414C65.3527 13.0634 71.02 7.68433 80.3058 7.68433C86.2161 7.68433 90.496 9.13427 94.175 12.7016L88.8686 17.9596C86.1558 15.3624 82.8994 14.9991 80.0673 14.9991C75.6033 14.9991 73.4324 17.4768 73.4324 20.4387C73.4324 21.5284 73.7947 22.6757 74.6975 23.5202C75.5429 24.3088 76.9318 24.9732 78.6784 25.2154L83.7433 25.9418C87.6624 26.4867 90.1352 27.5734 91.9423 29.264C94.2369 31.4404 95.2605 34.5855 95.2605 38.3935ZM119.56 15.544V51.0904H111.181V15.544H99.9646V8.04606H130.777V15.544H119.56ZM166.327 23.4082C166.327 24.8506 165.808 25.9933 164.772 26.8394C163.737 27.6839 162.352 28.1062 160.619 28.1062C159.381 28.1062 158.323 27.9367 157.442 27.5946C156.56 27.2541 155.74 26.6956 154.981 25.9207L156.166 24.7341C156.83 25.4015 157.506 25.8662 158.195 26.1295C158.883 26.3944 159.708 26.5261 160.666 26.5261C161.887 26.5261 162.848 26.2582 163.544 25.7239C164.238 25.1881 164.585 24.4314 164.585 23.4551C164.585 22.5561 164.317 21.8659 163.776 21.3847C163.358 20.9972 162.638 20.7263 161.617 20.5704L159.691 20.2919C158.393 20.0906 157.387 19.6714 156.676 19.0357C155.825 18.2759 155.401 17.2376 155.401 15.9194C155.401 14.5088 155.876 13.3812 156.827 12.5351C157.778 11.6891 159.066 11.2668 160.69 11.2668C161.726 11.2668 162.627 11.4106 163.393 11.6982C164.158 11.9857 164.896 12.4458 165.607 13.0815L164.472 14.2212C163.465 13.2601 162.182 12.7788 160.619 12.7788C159.522 12.7788 158.663 13.0588 158.045 13.6158C157.426 14.1758 157.117 14.9265 157.117 15.8724C157.117 16.7245 157.365 17.3708 157.86 17.8022C158.338 18.2214 159.058 18.509 160.017 18.6649L161.942 18.9676C162.715 19.0902 163.314 19.2339 163.738 19.3959C164.166 19.5594 164.564 19.8121 164.935 20.1526C165.862 20.9578 166.327 22.0445 166.327 23.4082ZM183.471 27.9669H181.708V15.3836L177.183 25.3622H175.675L171.083 15.3836V27.9669H169.319V11.4061H171.083L176.465 23.1524L181.708 11.4076H183.471V27.9669ZM199.585 27.9669H197.707L196.385 24.2225H189.17L187.847 27.9669H185.968L192.046 11.4061H193.531L199.585 27.9669ZM195.874 22.6878L192.811 13.9427L189.703 22.6878H195.874ZM213.635 27.9669H211.57L207.813 20.6173H203.845V27.9669H202.082V11.4061H208.415C209.869 11.4061 211.048 11.8223 211.952 12.6517C212.858 13.4811 213.311 14.6011 213.311 16.0117C213.311 17.1907 212.985 18.1684 212.336 18.9418C211.686 19.7183 210.812 20.2223 209.713 20.4554L213.635 27.9669ZM211.548 16.0359C211.548 15.0597 211.246 14.3075 210.642 13.7792C210.039 13.2525 209.242 12.9877 208.253 12.9877H203.845V19.0599H208.253C209.257 19.0599 210.057 18.7996 210.654 18.2804C211.249 17.7613 211.548 17.0121 211.548 16.0359ZM226.547 12.9877H221.768V27.9669H220.006V12.9877H215.225V11.4061H226.547V12.9877ZM243.878 12.9877H239.099V27.9669H237.337V12.9877H232.556V11.4061H243.878V12.9877ZM256.827 27.9669H246.573V11.4061H256.827V12.9877H248.335V18.8253H255.574V20.4069H248.335V26.3853H256.827V27.9669ZM270.386 23.1767C270.092 24.7114 269.435 25.9161 268.413 26.7939C267.394 27.6688 266.14 28.1077 264.656 28.1077C262.986 28.1077 261.609 27.5628 260.527 26.4791C259.799 25.7511 259.343 24.9505 259.157 24.0832C258.972 23.2145 258.878 21.7494 258.878 19.688C258.878 17.6251 258.972 16.16 259.157 15.2912C259.343 14.4225 259.799 13.6249 260.527 12.8969C261.609 11.8102 262.986 11.2668 264.656 11.2668C266.156 11.2668 267.412 11.7012 268.425 12.5684C269.438 13.4387 270.092 14.648 270.386 16.1994H268.576C268.36 15.1596 267.907 14.3423 267.219 13.7444C266.531 13.1481 265.676 12.8499 264.656 12.8499C263.526 12.8499 262.575 13.2374 261.802 14.0123C261.307 14.5239 260.99 15.1475 260.851 15.8845C260.711 16.6216 260.641 17.8884 260.641 19.688C260.641 21.4861 260.711 22.7544 260.851 23.4899C260.99 24.227 261.307 24.8506 261.802 25.3622C262.575 26.1386 263.526 26.5261 264.656 26.5261C265.676 26.5261 266.538 26.2279 267.242 25.6301C267.945 25.0337 268.406 24.2164 268.623 23.1767H270.386ZM284.85 27.9669H283.088V20.4069H275.246V27.9669H273.483V11.4061H275.246V18.8253H283.088V11.4061H284.85V27.9669ZM300.937 27.9669H299.267L290.496 14.6858V27.9669H288.735V11.4061H290.404L299.175 24.6402V11.4061H300.937V27.9669ZM315.884 19.688C315.884 21.7343 315.792 23.1918 315.606 24.0605C315.421 24.9293 314.957 25.7345 314.214 26.4791C313.132 27.5643 311.763 28.1077 310.108 28.1077C308.439 28.1077 307.06 27.5628 305.979 26.4791C305.252 25.7511 304.794 24.9505 304.61 24.0832C304.424 23.2145 304.331 21.7494 304.331 19.688C304.331 17.6251 304.424 16.16 304.61 15.2912C304.794 14.4225 305.252 13.6249 305.979 12.8954C307.06 11.8102 308.439 11.2668 310.108 11.2668C311.763 11.2668 313.132 11.8102 314.214 12.8954C314.957 13.64 315.421 14.4467 315.606 15.3155C315.792 16.1827 315.884 17.6402 315.884 19.688ZM314.122 19.688C314.122 17.8869 314.051 16.6216 313.913 15.8845C313.79 15.1791 313.458 14.5269 312.961 14.0123C312.187 13.2374 311.237 12.8499 310.108 12.8499C308.979 12.8499 308.028 13.2374 307.255 14.0123C306.76 14.5239 306.443 15.1475 306.302 15.8845C306.163 16.6216 306.094 17.8884 306.094 19.688C306.094 21.4861 306.163 22.7544 306.302 23.4899C306.443 24.227 306.76 24.8506 307.255 25.3622C308.028 26.1386 308.979 26.5261 310.108 26.5261C311.237 26.5261 312.187 26.1386 312.961 25.3606C313.458 24.8467 313.79 24.195 313.913 23.4899C314.051 22.7544 314.122 21.4861 314.122 19.688ZM329.486 27.9669H319.278V11.4061H321.041V26.3853H329.486V27.9669ZM342.779 19.688C342.779 21.7343 342.688 23.1918 342.501 24.0605C342.315 24.9293 341.852 25.7345 341.109 26.4791C340.026 27.5643 338.657 28.1077 337.003 28.1077C335.333 28.1077 333.955 27.5628 332.874 26.4791C332.146 25.7511 331.689 24.9505 331.504 24.0832C331.319 23.2145 331.225 21.7494 331.225 19.688C331.225 17.6251 331.319 16.16 331.504 15.2912C331.689 14.4225 332.146 13.6249 332.874 12.8954C333.955 11.8102 335.334 11.2668 337.003 11.2668C338.657 11.2668 340.026 11.8102 341.109 12.8954C341.852 13.64 342.317 14.4467 342.501 15.3155C342.686 16.1827 342.779 17.6402 342.779 19.688ZM341.017 19.688C341.017 17.8869 340.946 16.6216 340.807 15.8845C340.684 15.1791 340.353 14.5269 339.856 14.0123C339.081 13.2374 338.132 12.8499 337.003 12.8499C335.873 12.8499 334.922 13.2374 334.149 14.0123C333.654 14.5239 333.337 15.1475 333.198 15.8845C333.058 16.6216 332.988 17.8884 332.988 19.688C332.988 21.4861 333.058 22.7544 333.197 23.4899C333.337 24.227 333.654 24.8506 334.149 25.3622C334.922 26.1386 335.873 26.5261 337.003 26.5261C338.132 26.5261 339.081 26.1386 339.856 25.3606C340.353 24.8467 340.684 24.195 340.807 23.4899C340.946 22.7544 341.018 21.4861 341.018 19.688H341.017ZM357.289 21.9431C357.289 22.9194 357.187 23.7261 356.978 24.3617C356.741 25.0438 356.366 25.6694 355.876 26.1991C354.714 27.4705 353.247 28.1062 351.468 28.1062C349.798 28.1062 348.422 27.5643 347.339 26.4791C346.612 25.7496 346.156 24.9505 345.97 24.0832C345.784 23.2145 345.691 21.7494 345.691 19.6865C345.691 17.6236 345.784 16.16 345.97 15.2897C346.156 14.4225 346.612 13.6249 347.339 12.8954C348.422 11.8102 349.798 11.2668 351.468 11.2668C352.999 11.2668 354.287 11.7284 355.331 12.6502C356.373 13.5734 357.013 14.763 357.244 16.2221H355.482C355.25 15.1671 354.782 14.3408 354.078 13.7444C353.373 13.1466 352.504 12.8484 351.467 12.8484C350.309 12.8484 349.358 13.2359 348.613 14.0108C348.117 14.5261 347.786 15.1787 347.662 15.8845C347.523 16.6201 347.454 17.8884 347.454 19.6865C347.454 21.4876 347.523 22.7529 347.664 23.4884C347.803 24.2255 348.12 24.8506 348.615 25.3622C349.358 26.1371 350.309 26.5245 351.468 26.5245C352.782 26.5245 353.826 26.0523 354.601 25.1064C355.218 24.3315 355.528 23.331 355.528 22.1051V20.8262H351.467V19.3142H357.291L357.289 21.9431ZM362.395 27.9669H360.632V11.4061H362.395V27.9669ZM376.515 27.9669H366.261V11.4061H376.515V12.9877H368.023V18.8253H375.262V20.4069H368.023V26.3853H376.515V27.9669ZM390.056 23.4082C390.056 24.8506 389.537 25.9933 388.501 26.8394C387.466 27.6839 386.081 28.1062 384.348 28.1062C383.11 28.1062 382.052 27.9367 381.171 27.5946C380.289 27.2541 379.469 26.6956 378.711 25.9207L379.895 24.7341C380.559 25.4015 381.235 25.8662 381.924 26.1295C382.612 26.3944 383.437 26.5261 384.395 26.5261C385.616 26.5261 386.577 26.2582 387.273 25.7239C387.969 25.1881 388.316 24.4314 388.316 23.4551C388.316 22.5561 388.046 21.8659 387.505 21.3847C387.087 20.9972 386.367 20.7263 385.346 20.5704L383.42 20.2919C382.122 20.0906 381.116 19.6714 380.405 19.0357C379.554 18.2759 379.129 17.2376 379.129 15.9194C379.129 14.5088 379.605 13.3812 380.556 12.5351C381.507 11.6891 382.795 11.2668 384.419 11.2668C385.455 11.2668 386.356 11.4106 387.122 11.6982C387.887 11.9857 388.625 12.4458 389.336 13.0815L388.201 14.2212C387.194 13.2601 385.911 12.7788 384.348 12.7788C383.251 12.7788 382.392 13.0588 381.774 13.6158C381.155 14.1758 380.846 14.9265 380.846 15.8724C380.846 16.7245 381.094 17.3708 381.589 17.8022C382.067 18.2214 382.787 18.509 383.746 18.6649L385.671 18.9676C386.444 19.0902 387.043 19.2339 387.469 19.3959C387.895 19.5594 388.293 19.8121 388.664 20.1526C389.591 20.9578 390.056 22.0445 390.056 23.4082ZM158.137 51.2266H156.374V34.6657H158.137V51.2266ZM174.205 51.2266H172.535L163.765 37.9455V51.2266H162.002V34.6657H163.672L172.443 47.8999V34.6657H174.205V51.2266ZM188.939 34.6657L183.51 51.2266H182.072L176.643 34.6657H178.5L182.792 48.0634L187.084 34.6657H188.939ZM201.644 51.2266H191.391V34.6657H201.644V36.2474H193.152V42.085H200.391V43.6666H193.152V49.645H201.644V51.2266ZM215.186 46.6679C215.186 48.1103 214.666 49.253 213.631 50.099C212.595 50.9436 211.211 51.3658 209.478 51.3658C208.24 51.3658 207.182 51.1963 206.3 50.8543C205.418 50.5137 204.599 49.9552 203.839 49.1803L205.024 47.9937C205.689 48.6597 206.365 49.1258 207.053 49.3892C207.742 49.6541 208.566 49.7857 209.525 49.7857C210.746 49.7857 211.706 49.5178 212.402 48.9821C213.096 48.4478 213.444 47.691 213.444 46.7148C213.444 45.8158 213.175 45.1256 212.634 44.6443C212.216 44.2569 211.496 43.986 210.476 43.8301L208.549 43.5516C207.251 43.3503 206.246 42.931 205.535 42.2954C204.683 41.5356 204.259 40.4973 204.259 39.1775C204.259 37.7684 204.734 36.6409 205.686 35.7948C206.637 34.9472 207.924 34.5265 209.549 34.5265C210.584 34.5265 211.486 34.6703 212.251 34.9578C213.016 35.2439 213.755 35.7055 214.466 36.3412L213.33 37.4809C212.323 36.5198 211.04 36.0385 209.478 36.0385C208.38 36.0385 207.521 36.3185 206.904 36.8755C206.285 37.434 205.975 38.1862 205.975 39.1306C205.975 39.9842 206.223 40.629 206.718 41.0618C207.197 41.4811 207.917 41.7687 208.875 41.923L210.8 42.2257C211.573 42.3498 212.172 42.4936 212.597 42.6556C213.024 42.819 213.422 43.0718 213.794 43.4123C214.721 44.2175 215.186 45.3042 215.186 46.6664V46.6679ZM228.306 36.2489H223.527V51.2266H221.765V36.2489H216.984V34.6672H228.306V36.2489Z" fill="#404040"/>
</g>
</g>
<defs>
<clipPath id="clip0_9_53">
<rect width="391" height="56" fill="white"/>
</clipPath>
<clipPath id="clip1_9_53">
<rect width="327.595" height="56" fill="white" transform="translate(63.4054 1.51352)"/>
</clipPath>
</defs>
</svg>
