<svg width="732" height="720" viewBox="0 0 732 720" fill="none" xmlns="http://www.w3.org/2000/svg">
<path opacity="0.93" fill-rule="evenodd" clip-rule="evenodd" d="M31.8223 342.159C21.9269 250.175 52.9018 156.065 110.757 89.8156C169.191 22.9036 253.101 -16.7844 336.168 -6.34173C412.884 3.30257 461.906 79.1827 516.064 140.768C569.538 201.576 625.665 258.972 642.64 342.159C664.799 450.745 689.398 580.264 622.594 662.808C554.871 746.487 434.331 746.8 336.168 720.839C255.418 699.482 214.71 609.307 159.214 540.256C108.678 477.377 40.8562 426.135 31.8223 342.159Z" fill="#A5CD39"/>
<path fill-rule="evenodd" clip-rule="evenodd" d="M237.082 707.85C220.8 740.677 189.789 765.235 160.31 776.359C131.44 787.253 108.071 775.774 85.1607 765.175C58.2835 752.74 20.2027 747.626 19.2627 711.106C18.323 674.593 56.8323 640.439 81.0548 605.648C103.617 573.242 121.831 529.18 153.357 518.504C184.487 507.962 203.385 536.548 220.611 558.389C233.433 574.645 233.487 599.375 236.141 623.465C239.229 651.486 251.974 677.823 237.082 707.85Z" fill="#5D7547"/>
<path fill-rule="evenodd" clip-rule="evenodd" d="M515.166 34.1092C532.283 33.776 545.256 57.0325 562.049 64.2486C583.94 73.6553 608.311 64.5614 627.395 82.3348C652.545 105.758 678.548 137.756 682.06 176.019C685.676 215.422 671.935 260.433 645.129 275.569C618.013 290.88 586.444 247.302 555.764 247.334C532.344 247.359 515.962 285.717 493.046 275.727C470.364 265.84 464.628 227.255 450.585 201.484C434.719 172.37 400.496 147.7 405.541 115.145C410.772 81.3805 448.972 82.7188 471.576 66.01C486.431 55.0291 497.343 34.4562 515.166 34.1092Z" fill="#DDDF32"/>
<path fill-rule="evenodd" clip-rule="evenodd" d="M599.27 273.285C649.216 253.621 662.866 164.086 717.245 166.439C768.928 168.675 804.779 232.984 828.348 283.196C848.252 325.599 825.602 373.768 835.954 419.337C845.649 462.016 900.343 498.331 886.252 538.096C871.864 578.699 806.143 559.572 776.067 588.343C742.823 620.143 754.166 707.257 708.186 708.431C660.923 709.638 661.459 607.112 615.351 592.447C548.82 571.285 467.742 667.75 417.075 615.839C373.296 570.985 467.097 506.326 470.47 444.008C473.559 386.952 402.558 320.927 435.396 277.402C469.33 232.422 547.894 293.511 599.27 273.285Z" fill="#96B84E"/>
<path fill-rule="evenodd" clip-rule="evenodd" d="M516.399 160.581C510.72 161.124 505.683 162.197 505.207 162.964C504.73 163.73 502.716 164.358 500.733 164.358C497.342 164.358 480.796 169.883 471.66 174.067C451.674 183.216 433.358 201.846 423.935 222.611C420.287 230.648 418.312 233.025 413.887 234.696C409.649 236.298 409.071 236.949 411.383 237.513C418.575 239.269 421.612 236.589 428.892 222.062C437.87 204.144 448.692 192.579 465.907 182.509C482.326 172.904 497.412 167.909 518.421 165.122C537.525 162.588 541.579 163.646 540.142 170.792C539.646 173.265 538.734 182.585 538.117 191.503C537.162 205.281 537.54 209.885 540.627 222.147C544.156 236.162 544.174 236.674 541.245 239.896C538.739 242.657 538.311 245.48 538.709 256.66C539.214 270.893 538.517 273.605 531.276 285.518C508.207 323.484 504.363 328.397 500.644 324.696C497.514 321.582 492.964 322.962 487.095 328.801C480.967 334.9 479.32 335.033 469.77 330.203C463.542 327.051 454.136 315.558 452.948 309.646C451.271 301.301 451.909 291.362 454.401 287.024C458.846 279.287 456.41 276.024 450.432 281.709C445.928 285.992 442.182 294.183 440.362 303.731C439.468 308.422 438.081 312.913 437.28 313.71C432.058 318.906 414.526 305.107 407.568 290.322C405.443 285.809 403.093 282.118 402.343 282.118C401.593 282.118 400.98 281.375 400.98 280.467C400.98 277.34 392.581 269.449 386.207 266.588C376.261 262.126 367.984 265.913 370.529 273.762C370.997 275.209 376.242 279.637 382.181 283.601C388.122 287.566 398.295 295.688 404.789 301.651C421.471 316.971 428.388 321.898 439.277 326.215C451.211 330.945 454.477 336.546 456.045 354.964C457.488 371.942 454.166 387.694 445.29 405.939C437.64 421.668 437.744 425.335 445.796 423.789C457.011 421.637 463.843 405.397 466.862 373.709C469.451 346.542 468.943 347.837 478.707 343.477C487.923 339.36 500.93 338.942 509.99 342.47C518.217 345.672 527.211 341.83 532.765 332.741C535.77 327.826 536.414 327.56 543.435 328.348C552.681 329.385 575.186 340.399 585.024 348.701C607.295 367.495 621.973 389.541 629.991 416.233C645.011 466.238 637.319 529.521 611.573 567.768C604.492 578.287 590.425 593.371 586.186 594.989C583.112 596.163 584.085 600.321 587.761 601.726C591.571 603.18 600.684 598.626 604.426 593.396C607.668 588.865 617.361 571.288 625.546 555.091C631.008 544.284 633.124 542.911 640.795 545.198C648.897 547.614 662.647 547.609 667.984 545.19C672.512 543.137 677.402 536.731 678.402 531.539C678.749 529.74 679.408 523.625 679.866 517.951C680.576 509.173 681.25 507.426 684.378 506.242C689.277 504.389 693.593 497.564 693.427 491.934L693.294 487.379L691.114 492.286C689.916 494.985 687.112 498.889 684.881 500.963C681.147 504.438 680.619 504.527 678.167 502.086C676.704 500.629 674.728 499.916 673.778 500.5C666.45 505.007 662.177 477.354 668.178 464.256C670.001 460.275 672.244 458.625 678.18 456.896C691.07 453.142 700.194 438.872 699.997 422.775C699.842 410.23 697.096 407.362 696.964 419.605C696.839 431.287 693.547 440.05 686.403 447.717C684.099 450.19 680.841 452.215 679.166 452.215C674.534 452.215 665.265 459.748 662.842 465.481C659.915 472.411 660.127 486.464 663.275 493.961C666.056 500.58 667.512 502.345 673.729 506.62C677.256 509.046 677.678 510.433 677.307 518.396C676.85 528.222 674.151 534.994 668.748 539.861C666.059 542.285 663.003 542.946 655.174 542.795C649.619 542.691 642.667 542.054 639.73 541.384C633.297 539.915 633.084 537.959 637.496 520.761C643.18 498.606 645.079 474.14 642.812 452.254C637.61 402.028 619.435 367.979 583.323 340.803C573.344 333.292 548.795 322.998 540.943 323.031C533.86 323.06 532.54 323.867 528.93 330.366C524.529 338.296 519.298 340.471 510.358 338.091C506.226 336.99 500.266 336.091 497.115 336.091C493.065 336.091 491.385 335.357 491.385 333.587C491.385 329.917 495.935 328.793 500.644 331.3C503.561 332.854 505.549 333.001 507.518 331.809C509.042 330.887 516.029 320.617 523.046 308.986C530.063 297.358 537.695 284.941 540.006 281.393C543.74 275.659 544.199 273.305 544.136 260.193C544.074 247.282 544.508 244.974 547.608 241.688L551.152 237.936L547.979 228.542C545.424 220.981 544.759 214.048 544.567 192.98C544.437 178.587 544.252 165.207 544.156 163.246C543.962 159.248 539.57 157.713 531.656 158.871C528.944 159.268 522.078 160.037 516.399 160.581ZM400.859 286.712C400.781 284.296 397.8 280.431 392.579 275.984C386.866 271.115 382.927 269.033 379.431 269.033C372.081 269.033 373.834 273.587 383.159 278.721C387.37 281.038 392.178 284.111 393.843 285.549C399.537 290.464 400.987 290.704 400.859 286.712ZM455.527 324.642C453.297 324.642 448.648 313.419 448.648 308.031C448.648 303.727 448.283 303.28 446.183 305.015C444.826 306.136 443.717 309.238 443.717 311.911C443.717 315.395 442.787 317.012 440.43 317.626C434.731 319.109 436.542 323.006 442.93 323.006C447.509 323.006 449.11 323.86 450.591 327.095C451.62 329.344 453.075 331.184 453.821 331.184C455.547 331.184 460.154 342.039 460.154 346.104C460.154 347.793 460.861 349.175 461.724 349.175C464.015 349.175 471.672 341.186 471.591 338.879C471.519 336.868 461.168 329.549 458.397 329.549C457.555 329.549 456.867 328.445 456.867 327.095C456.867 325.746 456.263 324.642 455.527 324.642ZM448.648 416.091C450.877 416.197 455.223 409.511 455.223 405.976C455.223 405.193 454.113 405.654 452.757 407.003C451.401 408.353 450.292 410.553 450.292 411.891C450.292 413.23 449.366 414.696 448.237 415.15C446.835 415.713 446.965 416.012 448.648 416.091Z" fill="#5D7547"/>
<path d="M351.669 126.572C349.363 126.734 345.117 129.872 335.232 138.727C324.362 148.462 314.851 165.993 320.438 165.993C321.342 165.993 322.082 164.153 322.082 161.905C322.082 159.656 322.822 157.816 323.726 157.816C324.63 157.816 325.369 156.712 325.369 155.364C325.369 151.808 341.445 136.248 349.621 131.887C353.465 129.838 358.635 128.392 361.109 128.677C365.328 129.162 365.793 130.049 368.676 143.096C372.651 161.085 373.557 214.571 369.96 218.892C368.104 221.121 364.455 221.599 349.414 221.579C327.828 221.553 324.354 220.835 323.055 216.136C322.238 213.176 321.821 213.002 320.463 215.06C318.445 218.12 318.379 223.323 320.322 226.376C321.305 227.922 326.656 229.103 336.323 229.909C344.312 230.577 355.841 231.663 361.942 232.323C369.881 233.182 373.037 232.992 373.037 231.653C373.037 230.622 371.928 229.78 370.572 229.78C369.216 229.78 368.106 229.044 368.106 228.144C368.106 227.245 369.206 226.509 370.55 226.509C371.893 226.509 374.152 223.75 375.569 220.376C378.729 212.849 379.502 175.853 376.754 163.54C375.751 159.042 374.022 150.578 372.914 144.731C371.804 138.884 369.942 132.193 368.773 129.862C366.604 125.538 366.559 125.528 351.669 126.572Z" fill="#5D7547"/>
<path d="M382.899 234.687C388.671 236.527 409.391 236.527 405.09 234.687C403.282 233.913 396.625 233.303 390.296 233.329C382.155 233.363 379.992 233.761 382.899 234.687Z" fill="#5D7547"/>
<path d="M316.876 176.188C318.338 177.642 318.768 176.755 318.683 172.454C318.579 167.155 318.463 167.039 316.765 170.545C315.428 173.304 315.456 174.775 316.876 176.188Z" fill="#5D7547"/>
<path d="M313.656 212.237C315.029 213.603 315.45 210.716 315.284 201.076L315.06 188.073L313.433 199.234C312.259 207.278 312.322 210.909 313.656 212.237Z" fill="#5D7547"/>
<path d="M300.27 236.208C296.447 239.989 290.577 244.623 287.229 246.504C280.859 250.082 278.579 253.394 280.432 256.376C281.093 257.439 282.039 256.776 282.805 254.716C283.506 252.831 286.798 250.005 290.122 248.435C301.978 242.838 312.378 229.023 312.049 219.306C311.891 214.663 311.684 214.869 309.55 221.789C308.102 226.486 304.601 231.927 300.27 236.208Z" fill="#5D7547"/>
<path d="M246.496 288.953C246.473 293.158 250.12 298.473 253.03 298.473C253.794 298.473 255.633 298.01 257.116 297.444C259.391 296.576 259.22 296.123 256.018 294.541C253.893 293.491 252.007 290.886 251.733 288.619C251.461 286.393 250.868 283.488 250.411 282.163C249.681 280.044 249.399 280.044 248.052 282.163C247.211 283.488 246.511 286.542 246.496 288.953Z" fill="#5D7547"/>
<path d="M225.103 287.132C225.103 288.99 224.337 291.934 223.402 293.674C221.98 296.316 222.246 296.838 225.014 296.838C228.568 296.838 231.15 290.641 229.441 286.21C228.047 282.595 225.103 283.22 225.103 287.132Z" fill="#5D7547"/>
<path fill-rule="evenodd" clip-rule="evenodd" d="M230.054 247.135C216.932 255.775 205.291 280.976 205.008 301.353C204.907 308.654 205.733 314.956 207.155 317.709C209.798 322.831 216.403 329.153 220.468 330.45C221.986 330.936 225.514 335.36 228.305 340.281C231.097 345.203 244.407 361.915 257.882 377.416C301.628 427.742 302.9 428.776 319.026 427.098C324.584 426.521 328.917 426.776 329.502 427.718C331.017 430.16 322.894 432.588 313.209 432.588C308.446 432.588 304.092 433.043 303.534 433.599C302.975 434.154 305.903 441.316 310.04 449.512C314.177 457.709 318.65 467.375 319.976 470.991C327.247 490.791 335.138 523.836 335.396 535.551C335.713 549.941 338.182 551.951 338.355 537.961C338.665 512.976 329.344 474.398 317.095 449.968C314.445 444.683 312.678 439.715 313.168 438.928C313.656 438.14 316.101 437.495 318.599 437.495C324.395 437.495 338.519 432.747 338.519 430.799C338.519 429.985 337.012 427.818 335.168 425.982C332.39 423.218 329.932 422.697 320.785 422.932C314.718 423.089 307.905 422.464 305.645 421.544C301.082 419.684 300.446 419.007 276.037 390.08C266.556 378.846 255.87 366.479 252.29 362.602C244.709 354.393 231.72 337.443 231.696 335.731C231.686 335.083 259.415 335.018 293.317 335.585C340.352 336.374 354.956 336.16 354.956 334.679C354.956 330.55 345.157 329.549 304.716 329.549C275.553 329.549 262.908 329.007 262.908 327.759C262.908 326.776 264.373 325.591 266.164 325.124C270.974 323.873 281.712 305.639 284.134 294.61C286.387 284.347 285.513 273.552 281.689 264.418C280.409 261.359 278.653 259.452 277.674 260.054C276.717 260.643 272.92 258.415 269.235 255.103C255.288 242.565 241.31 239.723 230.054 247.135ZM276.6 274.956C275.304 266.797 265.681 255.906 254.69 250.157C245.452 245.326 241.17 245.213 233.328 249.6C220.88 256.561 206.235 292.423 209.267 308.514C210.913 317.24 218.198 325.756 225.103 327.025C232.192 328.329 261.551 329.673 257.566 328.512C253.432 327.306 254.024 321.935 258.858 316.801C271.03 303.877 278.427 286.432 276.6 274.956Z" fill="#5D7547"/>
<path d="M689.738 468.979C691.971 473.165 692.709 473.67 693.203 471.354C693.859 468.293 690.961 463.664 688.387 463.664C687.57 463.664 688.179 466.057 689.738 468.979Z" fill="#5D7547"/>
<path d="M693.562 481.982C693.562 484.624 694.048 485.096 695.391 483.76C696.397 482.759 696.723 481.14 696.116 480.162C694.415 477.424 693.562 478.032 693.562 481.982Z" fill="#5D7547"/>
<path d="M670.55 488.101C670.55 489.848 671.289 491.73 672.193 492.286C673.125 492.86 673.837 491.485 673.837 489.111C673.837 486.81 673.097 484.926 672.193 484.926C671.289 484.926 670.55 486.354 670.55 488.101Z" fill="#5D7547"/>
<path fill-rule="evenodd" clip-rule="evenodd" d="M512.399 156.581C506.72 157.124 501.683 158.197 501.207 158.964C500.73 159.73 498.716 160.358 496.733 160.358C493.342 160.358 476.796 165.883 467.66 170.067C447.674 179.216 429.358 197.846 419.935 218.611C416.287 226.648 414.312 229.025 409.887 230.696C405.649 232.298 405.071 232.949 407.383 233.513C414.575 235.269 417.612 232.589 424.892 218.062C433.87 200.144 444.692 188.579 461.907 178.509C478.326 168.904 493.412 163.909 514.421 161.122C533.525 158.588 537.579 159.646 536.142 166.792C535.646 169.265 534.734 178.585 534.117 187.503C533.162 201.281 533.54 205.885 536.627 218.147C540.156 232.162 540.174 232.674 537.245 235.896C534.739 238.657 534.311 241.48 534.709 252.66C535.214 266.893 534.517 269.605 527.276 281.518C504.207 319.484 500.363 324.397 496.644 320.696C493.514 317.582 488.964 318.962 483.095 324.801C476.967 330.9 475.32 331.033 465.77 326.203C459.542 323.051 450.136 311.558 448.948 305.646C447.271 297.301 447.909 287.362 450.401 283.024C454.846 275.287 452.41 272.024 446.432 277.709C441.928 281.992 438.182 290.183 436.362 299.731C435.468 304.422 434.081 308.913 433.28 309.71C428.058 314.906 410.526 301.107 403.568 286.322C401.443 281.809 399.093 278.118 398.343 278.118C397.593 278.118 396.98 277.375 396.98 276.467C396.98 273.34 388.581 265.449 382.207 262.588C372.261 258.126 363.984 261.913 366.529 269.762C366.997 271.209 372.242 275.637 378.181 279.601C384.122 283.566 394.295 291.688 400.789 297.651C417.471 312.971 424.388 317.898 435.277 322.215C447.211 326.945 450.477 332.546 452.045 350.964C453.488 367.942 450.166 383.694 441.29 401.939C433.64 417.668 433.744 421.335 441.796 419.789C453.011 417.637 459.843 401.397 462.862 369.709C465.451 342.542 464.943 343.837 474.707 339.477C483.923 335.36 496.93 334.942 505.99 338.47C514.217 341.672 523.211 337.83 528.765 328.741C531.77 323.826 532.414 323.56 539.435 324.348C548.681 325.385 571.186 336.399 581.024 344.701C603.295 363.495 617.973 385.541 625.991 412.233C641.011 462.238 633.319 525.521 607.573 563.768C600.492 574.287 586.425 589.371 582.186 590.989C579.112 592.163 580.085 596.321 583.761 597.726C587.571 599.18 596.684 594.626 600.426 589.396C603.668 584.865 613.361 567.288 621.546 551.091C627.008 540.284 629.124 538.911 636.795 541.198C644.897 543.614 658.647 543.609 663.984 541.19C668.512 539.137 673.402 532.731 674.402 527.539C674.749 525.74 675.408 519.625 675.866 513.951C676.576 505.173 677.25 503.426 680.378 502.242C685.277 500.389 689.593 493.564 689.427 487.934L689.294 483.379L687.114 488.286C685.916 490.985 683.112 494.889 680.881 496.963C677.147 500.438 676.619 500.527 674.167 498.086C672.704 496.629 670.728 495.916 669.778 496.5C662.45 501.007 658.177 473.354 664.178 460.256C666.001 456.275 668.244 454.625 674.18 452.896C687.07 449.142 696.194 434.872 695.997 418.775C695.842 406.23 693.096 403.362 692.964 415.605C692.839 427.287 689.547 436.05 682.403 443.717C680.099 446.19 676.841 448.215 675.166 448.215C670.534 448.215 661.265 455.748 658.842 461.481C655.915 468.411 656.127 482.464 659.275 489.961C662.056 496.58 663.512 498.345 669.729 502.62C673.256 505.046 673.678 506.433 673.307 514.396C672.85 524.222 670.151 530.994 664.748 535.861C662.059 538.285 659.003 538.946 651.174 538.795C645.619 538.691 638.667 538.054 635.73 537.384C629.297 535.915 629.084 533.959 633.496 516.761C639.18 494.606 641.079 470.14 638.812 448.254C633.61 398.028 615.435 363.979 579.323 336.803C569.344 329.292 544.795 318.998 536.943 319.031C529.86 319.06 528.54 319.867 524.93 326.366C520.529 334.296 515.298 336.471 506.358 334.091C502.226 332.99 496.266 332.091 493.115 332.091C489.065 332.091 487.385 331.357 487.385 329.587C487.385 325.917 491.935 324.793 496.644 327.3C499.561 328.854 501.549 329.001 503.518 327.809C505.042 326.887 512.029 316.617 519.046 304.986C526.063 293.358 533.695 280.941 536.006 277.393C539.74 271.659 540.199 269.305 540.136 256.193C540.074 243.282 540.508 240.974 543.608 237.688L547.152 233.936L543.979 224.542C541.424 216.981 540.759 210.048 540.567 188.98C540.437 174.587 540.252 161.207 540.156 159.246C539.962 155.248 535.57 153.713 527.656 154.871C524.944 155.268 518.078 156.037 512.399 156.581ZM396.859 282.712C396.781 280.296 393.8 276.431 388.579 271.984C382.866 267.115 378.927 265.033 375.431 265.033C368.081 265.033 369.834 269.587 379.159 274.721C383.37 277.038 388.178 280.111 389.843 281.549C395.537 286.464 396.987 286.704 396.859 282.712ZM451.527 320.642C449.297 320.642 444.648 309.419 444.648 304.031C444.648 299.727 444.283 299.28 442.183 301.015C440.826 302.136 439.717 305.238 439.717 307.911C439.717 311.395 438.787 313.012 436.43 313.626C430.731 315.109 432.542 319.006 438.93 319.006C443.509 319.006 445.11 319.86 446.591 323.095C447.62 325.344 449.075 327.184 449.821 327.184C451.547 327.184 456.154 338.039 456.154 342.104C456.154 343.793 456.861 345.175 457.724 345.175C460.015 345.175 467.672 337.186 467.591 334.879C467.519 332.868 457.168 325.549 454.397 325.549C453.555 325.549 452.867 324.445 452.867 323.095C452.867 321.746 452.263 320.642 451.527 320.642ZM444.648 412.091C446.877 412.197 451.223 405.511 451.223 401.976C451.223 401.193 450.113 401.654 448.757 403.004C447.401 404.353 446.292 406.553 446.292 407.891C446.292 409.23 445.366 410.695 444.237 411.15C442.835 411.713 442.965 412.012 444.648 412.091Z" fill="#F8F8F8"/>
<path d="M347.669 122.572C345.363 122.734 341.117 125.872 331.232 134.727C320.362 144.462 310.851 161.993 316.438 161.993C317.342 161.993 318.082 160.153 318.082 157.905C318.082 155.656 318.822 153.816 319.726 153.816C320.63 153.816 321.369 152.712 321.369 151.364C321.369 147.808 337.445 132.248 345.621 127.887C349.465 125.838 354.635 124.392 357.109 124.677C361.328 125.162 361.793 126.049 364.676 139.096C368.651 157.085 369.557 210.571 365.96 214.892C364.104 217.121 360.455 217.599 345.414 217.579C323.828 217.553 320.354 216.835 319.055 212.136C318.238 209.176 317.821 209.002 316.463 211.06C314.444 214.12 314.379 219.323 316.322 222.376C317.305 223.922 322.656 225.103 332.323 225.909C340.312 226.577 351.841 227.663 357.942 228.323C365.881 229.182 369.037 228.992 369.037 227.653C369.037 226.622 367.928 225.78 366.572 225.78C365.216 225.78 364.106 225.044 364.106 224.144C364.106 223.245 365.206 222.509 366.55 222.509C367.893 222.509 370.152 219.75 371.569 216.376C374.729 208.849 375.502 171.853 372.754 159.54C371.751 155.042 370.022 146.578 368.914 140.731C367.804 134.884 365.942 128.193 364.773 125.862C362.604 121.538 362.559 121.528 347.669 122.572Z" fill="#F8F8F8"/>
<path d="M378.9 230.687C384.671 232.527 405.391 232.527 401.09 230.687C399.282 229.913 392.625 229.303 386.296 229.329C378.155 229.363 375.992 229.761 378.9 230.687Z" fill="#F8F8F8"/>
<path d="M312.876 172.188C314.338 173.642 314.768 172.755 314.683 168.454C314.579 163.155 314.463 163.039 312.765 166.545C311.428 169.304 311.456 170.775 312.876 172.188Z" fill="#F8F8F8"/>
<path d="M309.656 208.237C311.029 209.603 311.45 206.716 311.284 197.076L311.06 184.073L309.433 195.234C308.259 203.278 308.322 206.909 309.656 208.237Z" fill="#F8F8F8"/>
<path d="M296.27 232.208C292.447 235.989 286.577 240.623 283.229 242.504C276.859 246.082 274.579 249.394 276.432 252.376C277.093 253.439 278.04 252.776 278.805 250.716C279.506 248.831 282.798 246.005 286.122 244.435C297.978 238.838 308.378 225.023 308.049 215.306C307.891 210.663 307.684 210.869 305.55 217.789C304.102 222.486 300.601 227.927 296.27 232.208Z" fill="#F8F8F8"/>
<path d="M242.496 284.953C242.473 289.158 246.12 294.473 249.03 294.473C249.794 294.473 251.633 294.01 253.116 293.444C255.391 292.576 255.22 292.123 252.018 290.541C249.893 289.491 248.007 286.886 247.733 284.619C247.461 282.393 246.868 279.488 246.411 278.163C245.681 276.044 245.399 276.044 244.052 278.163C243.211 279.488 242.511 282.542 242.496 284.953Z" fill="#F8F8F8"/>
<path d="M221.103 283.132C221.103 284.99 220.337 287.934 219.402 289.674C217.98 292.316 218.246 292.838 221.014 292.838C224.568 292.838 227.15 286.641 225.441 282.21C224.047 278.595 221.103 279.22 221.103 283.132Z" fill="#F8F8F8"/>
<path fill-rule="evenodd" clip-rule="evenodd" d="M226.054 243.135C212.932 251.775 201.291 276.976 201.008 297.353C200.907 304.654 201.733 310.956 203.155 313.709C205.798 318.831 212.403 325.153 216.468 326.45C217.986 326.936 221.514 331.36 224.305 336.281C227.097 341.203 240.407 357.915 253.882 373.416C297.628 423.742 298.9 424.776 315.026 423.098C320.584 422.521 324.917 422.776 325.502 423.718C327.017 426.16 318.894 428.588 309.209 428.588C304.446 428.588 300.092 429.043 299.534 429.599C298.975 430.154 301.903 437.316 306.04 445.512C310.177 453.709 314.65 463.375 315.976 466.991C323.247 486.791 331.138 519.836 331.396 531.551C331.713 545.941 334.182 547.951 334.355 533.961C334.665 508.976 325.344 470.398 313.095 445.968C310.445 440.683 308.678 435.715 309.168 434.928C309.656 434.14 312.101 433.495 314.599 433.495C320.395 433.495 334.519 428.747 334.519 426.799C334.519 425.985 333.012 423.818 331.168 421.982C328.39 419.218 325.932 418.697 316.785 418.932C310.718 419.089 303.905 418.464 301.645 417.544C297.082 415.684 296.446 415.007 272.037 386.08C262.556 374.846 251.87 362.479 248.29 358.602C240.709 350.393 227.72 333.443 227.696 331.731C227.686 331.083 255.415 331.018 289.317 331.585C336.352 332.374 350.956 332.16 350.956 330.679C350.956 326.55 341.157 325.549 300.716 325.549C271.553 325.549 258.908 325.007 258.908 323.759C258.908 322.776 260.373 321.591 262.164 321.124C266.974 319.873 277.712 301.639 280.134 290.61C282.387 280.347 281.513 269.552 277.689 260.418C276.409 257.359 274.653 255.452 273.674 256.054C272.717 256.643 268.92 254.415 265.235 251.103C251.288 238.565 237.31 235.723 226.054 243.135ZM272.6 270.956C271.304 262.797 261.681 251.906 250.69 246.157C241.452 241.326 237.17 241.213 229.328 245.6C216.88 252.561 202.235 288.423 205.267 304.514C206.913 313.24 214.198 321.756 221.103 323.025C228.192 324.329 257.551 325.673 253.566 324.512C249.432 323.306 250.024 317.935 254.858 312.801C267.03 299.877 274.427 282.432 272.6 270.956Z" fill="#F8F8F8"/>
<path d="M685.738 464.979C687.971 469.165 688.709 469.67 689.203 467.354C689.859 464.293 686.961 459.664 684.387 459.664C683.57 459.664 684.179 462.057 685.738 464.979Z" fill="#F8F8F8"/>
<path d="M689.562 477.982C689.562 480.624 690.048 481.096 691.391 479.76C692.397 478.759 692.723 477.14 692.116 476.162C690.415 473.424 689.562 474.032 689.562 477.982Z" fill="#F8F8F8"/>
<path d="M666.55 484.101C666.55 485.848 667.289 487.73 668.193 488.286C669.125 488.86 669.837 487.485 669.837 485.111C669.837 482.81 669.097 480.926 668.193 480.926C667.289 480.926 666.55 482.354 666.55 484.101Z" fill="#F8F8F8"/>
</svg>
